<?xml version="1.0" ?><svg height="64" viewBox="0 0 64 64" width="64" xmlns="http://www.w3.org/2000/svg"><defs><style>.cls-1{fill:#f25c00;}</style></defs><title/><g data-name="Слой 10" id="Слой_10"><path class="cls-1" d="M59,54a1,1,0,0,1-1,1H56v2a1,1,0,0,1-2,0V55H52a1,1,0,0,1,0-2h2V51a1,1,0,0,1,2,0v2h2A1,1,0,0,1,59,54ZM7,11a1,1,0,0,0,0,2H9v2a1,1,0,0,0,2,0V13h2a1,1,0,0,0,0-2H11V9A1,1,0,0,0,9,9v2ZM58,43a1,1,0,1,0,1,1A1,1,0,0,0,58,43Zm-3-2a1,1,0,1,0-1-1A1,1,0,0,0,55,41ZM43,56a1,1,0,1,0,1,1A1,1,0,0,0,43,56Zm18,5a1,1,0,1,0,1,1A1,1,0,0,0,61,61ZM33,59a1,1,0,1,0,1,1A1,1,0,0,0,33,59Zm4-19a1,1,0,1,0,1,1A1,1,0,0,0,37,40ZM16,29a1,1,0,1,0-1-1A1,1,0,0,0,16,29ZM4,30a1,1,0,1,0-1-1A1,1,0,0,0,4,30Zm2-6a1,1,0,1,0-1-1A1,1,0,0,0,6,24ZM6,6A1,1,0,1,0,5,5,1,1,0,0,0,6,6ZM64,17A17,17,0,1,1,47,0,17.019,17.019,0,0,1,64,17Zm-5.379,9.469a19.9,19.9,0,0,1-2.981.212c-1.162,0-2.338-.074-3.525-.165-1.276-.1-2.549-.239-3.821-.381-1.893-.211-3.849-.43-5.763-.483A23.426,23.426,0,0,0,37.441,26a1,1,0,0,1-.375-1.965,25.5,25.5,0,0,1,5.521-.387c.525.015,1.05.043,1.574.078-1.515-.347-3.053-.672-4.581-.882a16.839,16.839,0,0,0-4.324-.129,1,1,0,0,1-.238-1.986,18.759,18.759,0,0,1,4.836.135c2.169.3,4.313.8,6.386,1.294,1.728.408,3.514.829,5.276,1.12,2.694.441,4.932.732,7.122.124a14.272,14.272,0,0,0,2.29-.866,14.885,14.885,0,0,0,.367-10.077,14.07,14.07,0,0,1-7.269,3.572,31.445,31.445,0,0,1-5.732.458h0a1,1,0,0,1,0-2,29.031,29.031,0,0,0,5.363-.423,11.537,11.537,0,0,0,6.812-3.646,15.073,15.073,0,0,0-4.178-5.183,27.015,27.015,0,0,1-6.463,3.174,45.338,45.338,0,0,1-13.282,2.531H36.5a1,1,0,0,1-.038-2,43.342,43.342,0,0,0,12.7-2.42c.195-.069.366-.143.555-.213-.091,0-.185.009-.276.009a28.166,28.166,0,0,1-3.252-.215c-.48-.056-.962-.118-1.443-.181-.456-.06-.913-.118-1.371-.172A1,1,0,0,1,43.6,3.769c.466.054.931.114,1.4.175s.944.123,1.416.178a20.21,20.21,0,0,0,5.114.06,10.152,10.152,0,0,0,2.188-.574A14.993,14.993,0,1,0,47,32a14.909,14.909,0,0,0,5.935-1.23c-.553-.07-1.1-.149-1.644-.231-.936-.141-1.9-.286-2.831-.354a17.164,17.164,0,0,0-4.774.327,1,1,0,1,1-.41-1.957,19.169,19.169,0,0,1,5.328-.364c1.007.071,2.013.224,2.985.37a21.591,21.591,0,0,0,4.467.369A15.113,15.113,0,0,0,58.621,26.469Zm-24.037-9.02c.73-.228,1.477-.426,2.217-.589a18.089,18.089,0,0,1,2.718-.354A3.992,3.992,0,0,0,46.284,18.7a1,1,0,0,0-1.414-1.414,2,2,0,1,1,0-2.828,1,1,0,0,0,1.414-1.414,4,4,0,0,0-5.657,0,3.956,3.956,0,0,0-.914,1.449,20.683,20.683,0,0,0-3.343.415c-.795.176-1.6.389-2.38.632a1,1,0,0,0,.3,1.955A1.014,1.014,0,0,0,34.584,17.449Zm-8.266,18.5c.256,1.395.464,2.641.634,3.81a1,1,0,0,0,.988.856.908.908,0,0,0,.145-.011,1,1,0,0,0,.846-1.133c-.173-1.194-.385-2.465-.646-3.884a1,1,0,1,0-1.967.361ZM25.183,25.267a1.1,1.1,0,0,0,.112-.006,1,1,0,0,0,.883-1.105c-.146-1.3-.228-2.571-.244-3.793a1,1,0,0,0-1-.986H24.92a1,1,0,0,0-.986,1.014c.018,1.286.1,2.628.256,3.988A1,1,0,0,0,25.183,25.267ZM25,17.477a1,1,0,0,0,1.1-.888,26.77,26.77,0,0,1,.655-3.7,1,1,0,1,0-1.939-.49,28.685,28.685,0,0,0-.7,3.975A1,1,0,0,0,25,17.477Zm1.759,10.455a1,1,0,1,0-1.965.375l.778,3.833a1,1,0,0,0,.979.8,1.067,1.067,0,0,0,.2-.02,1,1,0,0,0,.782-1.179ZM29.393,43.4,27.4,43.6l.025.313q.044.576.045,1.159a14.415,14.415,0,0,1-.161,2.157,1,1,0,0,0,.84,1.139,1.124,1.124,0,0,0,.15.011,1,1,0,0,0,.988-.851,16.6,16.6,0,0,0,.183-2.456q0-.659-.051-1.312ZM21.418,55.533a13.3,13.3,0,0,1-3.509.859,1,1,0,0,0,.109,1.994,1.077,1.077,0,0,0,.111-.006,15.329,15.329,0,0,0,4.044-1,1,1,0,1,0-.756-1.852ZM27.623,50.2a1,1,0,0,0-1.326.49,10.458,10.458,0,0,1-1.388,2.24,12.481,12.481,0,1,0-4.324,8.106,1,1,0,0,0-1.295-1.525,10.521,10.521,0,1,1-4.973-18.34,13.367,13.367,0,0,0,.63,3.865,9.481,9.481,0,0,1,.5,3.876,7.083,7.083,0,0,1-1.784,3.083,10.309,10.309,0,0,0-2.111,3.465l-.1.341a6.477,6.477,0,0,1-.308.924c.023-.557.086-1.177.118-1.5a6.139,6.139,0,0,0,.064-1.23C11.1,52.18,9.659,50.9,8.7,50.052l-.165-.146a3.913,3.913,0,0,0-2.83-1.383,2.5,2.5,0,0,0-1.754,1.133,6.023,6.023,0,0,0-.229,5.8,1,1,0,1,0,1.8-.871,4.109,4.109,0,0,1,.045-3.752c.176-.243.3-.315.348-.32.281-.058.929.564,1.286.884l.172.153a5.042,5.042,0,0,1,1.967,2.66c.006.152-.03.449-.066.811-.187,1.85-.381,3.764.832,4.315a1.328,1.328,0,0,0,.557.124,2.566,2.566,0,0,0,1.674-.95,3.234,3.234,0,0,0,.406-.537,10.279,10.279,0,0,0,1.206.3.97.97,0,0,0,.183.017,1,1,0,0,0,.181-1.983,8.326,8.326,0,0,1-.864-.207l.021-.073A8.7,8.7,0,0,1,15.22,53.25a8.623,8.623,0,0,0,2.208-4.042,11.161,11.161,0,0,0-.55-4.7,14.077,14.077,0,0,1-.548-2.779,10.476,10.476,0,0,1,2.387,1.324A.987.987,0,0,0,18,44a1,1,0,0,0,1,1h1.731a10.512,10.512,0,0,1,1.242,2h-1.64a1,1,0,1,0,0,2h2.354a10.374,10.374,0,0,1-.224,5.825,1,1,0,1,0,1.9.633c.038-.113.065-.229.1-.343a.955.955,0,0,0,1.266-.1,12.084,12.084,0,0,0,2.389-3.487A1,1,0,0,0,27.623,50.2ZM29.4,4.674a1,1,0,0,0-1.381.3c-.422.658-.8,1.342-1.16,2.038a1.988,1.988,0,1,0,1.8.866c.322-.623.666-1.236,1.043-1.826A1,1,0,0,0,29.4,4.674Zm1.83-1.281a1,1,0,0,0,.748-.336c.417-.47.866-.938,1.335-1.395A1,1,0,1,0,31.917.229c-.5.489-.986.994-1.437,1.5a1,1,0,0,0,.748,1.664ZM20.5,53a1,1,0,0,0,0-2H18.916a1,1,0,0,0,0,2Z"/></g></svg>